<?xml version="1.0" encoding="utf-8"?>
<!-- Generator: Adobe Illustrator 25.0.0, SVG Export Plug-In . SVG Version: 6.00 Build 0)  -->
<svg version="1.1" xmlns="http://www.w3.org/2000/svg" xmlns:xlink="http://www.w3.org/1999/xlink" x="0px" y="0px"
	 viewBox="0 0 100 100" style="enable-background:new 0 0 100 100;" xml:space="preserve">
<style type="text/css">
	.st0{display:none;}
	.st1{display:inline;fill:none;stroke:#007544;stroke-width:3;stroke-linecap:round;stroke-linejoin:round;stroke-miterlimit:10;}
	.st2{display:inline;}
	.st3{fill:none;stroke:#1B6533;stroke-width:3;stroke-linecap:round;stroke-linejoin:round;stroke-miterlimit:10;}
	.st4{fill:#1B6533;}
	.st5{fill:#FFFFFF;}
	.st6{fill:#007544;}
	.st7{fill:#FAC500;}
	.st8{fill:#F09100;}
	.st9{fill:#166934;}
	.st10{fill:#00853B;}
</style>
<g id="Layer_1" class="st0">
	<path class="st1" d="M77.24,50.27L49.36,64.95V98l27.88-14.69V64.43 M21.48,50.27l27.88,14.69V98L21.48,83.31v-18.7 M43.38,32.79
		l-7.96-4.56L7.54,42.92l13.94,7.34l18.76-10.16 M21.48,50.27l27.88,14.69l27.88-14.69L56.7,39.25"/>
	<path class="st1" d="M36.03,71.67L8.77,57.77l13.62-6.95l27.25,13.89L36.03,71.67z M63.28,71.67l27.25-13.89L76.9,50.83
		L49.65,64.72L63.28,71.67z"/>
	<polyline class="st1" points="65.16,30.02 89.45,42.36 76.63,50.2 	"/>
	<g class="st2">
		<path class="st3" d="M48.16,50.19c-1.43,0-2.51,0.41-3.23,1.22c-0.73,0.82-1.09,1.81-1.09,2.99c0,1.19,0.36,2.17,1.09,2.95
			c0.73,0.79,1.8,1.19,3.23,1.19c1.43,0,2.51-0.4,3.25-1.19c0.74-0.79,1.11-1.77,1.11-2.95c0-1.18-0.37-2.18-1.11-2.99
			C50.67,50.6,49.59,50.19,48.16,50.19z"/>
		<path class="st3" d="M60.96,6.88c-2.8-2.69-6.7-4.04-11.69-4.04c-4.81,0-8.71,1.32-11.72,3.95c-1.8,1.58-3.07,3.45-3.81,5.62
			c-0.8,2.34,0.99,4.76,3.46,4.76c1.62,0,2.98-1.09,3.48-2.63c0.4-1.22,1.09-2.27,2.09-3.13c1.65-1.43,3.82-2.14,6.51-2.14
			c2.78,0,4.9,0.79,6.35,2.36c1.46,1.58,2.18,3.75,2.18,6.54c0,2.88-1.11,5.58-3.33,8.09l-5.21,5.36c-2.05,2.22-3.4,4.24-4.05,6.08
			c-0.34,0.96-0.6,2.1-0.79,3.42c-0.3,2.15,1.43,4.07,3.6,4.07h0.09c1.76,0,3.31-1.26,3.57-3c0.38-2.61,1.28-4.7,2.71-6.28
			l4.33-4.29c4.29-4.49,6.43-9.04,6.43-13.67C65.16,13.27,63.76,9.58,60.96,6.88z"/>
	</g>
</g>
<g id="Layer_2" class="st0">
	<g class="st2">
		<g>
			<g>
				<path class="st4" d="M29.66,78.66C13.3,78.66,0,65.43,0,49.17c0-16.26,13.3-29.48,29.66-29.48c7.56,0,14.71,2.8,20.21,7.91
					c5.3-4.92,12.41-7.94,20.22-7.94c16.35,0,29.66,13.23,29.66,29.48s-13.3,29.48-29.66,29.48c-7.79,0-14.89-3-20.19-7.91
					C44.39,75.85,37.24,78.66,29.66,78.66z M29.66,21.48c-15.36,0-27.86,12.42-27.86,27.69c0,15.27,12.5,27.69,27.86,27.69
					c7.1,0,13.79-2.62,18.96-7.4c-5.07-5.29-8.18-12.45-8.18-20.32c0-7.85,3.1-15,8.16-20.29C43.43,24.09,36.74,21.48,29.66,21.48z
					 M70.09,21.45c-15.36,0-27.86,12.42-27.86,27.69s12.5,27.69,27.86,27.69s27.86-12.42,27.86-27.69S85.46,21.45,70.09,21.45z
					 M85.59,55.55l-1.66-0.69c0.75-1.8,1.13-3.72,1.13-5.69c0-3.06-0.93-6-2.68-8.5l1.47-1.03c1.96,2.8,3,6.1,3,9.53
					C86.86,51.38,86.44,53.53,85.59,55.55z"/>
			</g>
			<g>
				<polygon class="st5" points="80.85,44.67 78.26,35.28 87.68,37.73 				"/>
				<path class="st4" d="M80.55,45.82L77.4,34.44l11.43,2.97L80.55,45.82z M79.11,36.12l2.04,7.39l5.38-5.46L79.11,36.12z"/>
			</g>
			<g>
				<path class="st4" d="M24.6,63.04c-5.78,0-11.63-1.62-11.63-4.71c0-0.48,0.15-1.14,0.8-1.82c-0.51-0.54-0.8-1.15-0.8-1.84
					c0-0.48,0.15-1.14,0.8-1.82c-0.51-0.54-0.8-1.15-0.8-1.83c0-0.48,0.15-1.14,0.8-1.82c-0.51-0.54-0.8-1.15-0.8-1.84
					c0-3.09,5.85-4.71,11.63-4.71c5.78,0,11.63,1.62,11.63,4.71c0,0.69-0.29,1.3-0.8,1.84c0.64,0.68,0.8,1.34,0.8,1.82
					c0,0.68-0.29,1.3-0.79,1.83c0.64,0.68,0.79,1.34,0.79,1.82c0,0.69-0.29,1.3-0.8,1.84c0.64,0.68,0.8,1.34,0.8,1.82
					C36.23,61.42,30.38,63.04,24.6,63.04z M15.23,57.58c-0.3,0.27-0.47,0.53-0.47,0.75c0,1.19,3.83,2.92,9.84,2.92
					c6.01,0,9.84-1.73,9.84-2.92c0-0.22-0.17-0.48-0.47-0.75C29.51,59.96,19.69,59.96,15.23,57.58z M15.23,53.92
					c-0.3,0.27-0.47,0.53-0.47,0.75c0,1.19,3.83,2.92,9.84,2.92c6.01,0,9.84-1.73,9.84-2.92c0-0.22-0.17-0.48-0.47-0.75
					C29.51,56.3,19.69,56.3,15.23,53.92z M15.23,50.26c-0.3,0.27-0.47,0.53-0.47,0.75c0,1.19,3.83,2.92,9.84,2.92
					c6.01,0,9.84-1.73,9.84-2.92c0-0.22-0.17-0.48-0.47-0.75C29.51,52.64,19.69,52.64,15.23,50.26z M24.6,44.43
					c-6.01,0-9.84,1.73-9.84,2.92c0,1.19,3.83,2.92,9.84,2.92c6.01,0,9.84-1.73,9.84-2.92C34.44,46.16,30.61,44.43,24.6,44.43z
					 M79.92,59.98L69.16,49.24V28.9h1.79v19.6l10.24,10.22L79.92,59.98z M25.5,40.77H23.7V28.9h1.79V40.77z"/>
			</g>
			<g>
				<polygon class="st5" points="28.95,39.55 24.3,47.61 19.64,39.55 				"/>
				<path class="st4" d="M24.3,48.8l-5.69-9.85h11.38L24.3,48.8z M20.68,40.15l3.62,6.26l3.62-6.26H20.68z"/>
			</g>
		</g>
	</g>
</g>
<g id="Layer_3" class="st0">
	<g class="st2">
		<g>
			<path class="st6" d="M57.75,42.72c-1.22-2.1-2.3-3.88-3.29-5.7c-4.64-8.52-2.72-18.65,4.65-24.76c7.15-5.92,17.6-5.96,24.85-0.1
				c7.39,5.97,9.42,16.22,4.79,24.73c-1.49,2.74-3.16,5.38-4.9,7.97c-0.86,1.27-0.85,2.28-0.26,3.64
				c4.92,11.37,9.78,22.77,14.64,34.16c1.19,2.78,0.73,3.46-2.36,3.46c-30.53,0.01-61.06,0.01-91.59,0c-3,0-3.47-0.73-2.27-3.54
				c5.36-12.54,10.76-25.06,16.05-37.62c0.74-1.75,1.76-2.27,3.55-2.26c11.09,0.06,22.17,0.03,33.26,0.03
				C55.73,42.72,56.57,42.72,57.75,42.72z M28.12,45.91c-0.15,0.22-0.29,0.45-0.44,0.67c0.93,0.9,1.74,1.98,2.81,2.65
				c1.57,0.99,3.38,1.59,5,2.52c3.24,1.86,4.01,4.92,2.12,8.17c-0.63,1.08-1.4,2.07-2.04,3.14c-1.31,2.18-0.93,3.58,1.35,4.75
				c0.89,0.46,1.85,0.89,2.83,1.06c4.75,0.82,9.5,1.81,14.29,2.24c8.39,0.75,15.67,2.98,18.77,11.66c7.42,0,14.61,0,22.06,0
				c-4.71-11.02-9.31-21.77-14.07-32.91c-2.7,4.31-5.16,8.26-7.65,12.2c-1.46,2.31-2.43,2.3-3.84-0.05
				c-2.89-4.81-5.8-9.61-8.59-14.48c-0.72-1.25-1.51-1.67-2.94-1.66c-8.19,0.07-16.39,0.03-24.58,0.03
				C31.5,45.91,29.81,45.91,28.12,45.91z M69.35,82.85c-1.62-4.02-4.59-6.31-8.39-7.32c-3.06-0.81-6.3-0.95-9.44-1.52
				c-4.97-0.9-10.05-1.48-14.83-2.99c-5.39-1.71-6.4-5.83-3.26-10.51c3.1-4.61,2.99-5.01-2-7.26c-0.35-0.16-0.71-0.31-1.07-0.48
				c-2.95-1.36-5.33-3.22-5.69-6.64c-2.61-0.82-3.82,0.12-4.81,2.53C15.45,59.4,10.8,70.03,6.24,80.7
				c-0.28,0.67-0.52,1.35-0.82,2.16C26.88,82.85,47.99,82.85,69.35,82.85z M71.21,59.19c1.5-2.4,2.75-4.36,3.98-6.34
				c3.66-5.89,7.52-11.68,10.92-17.72c3.87-6.88,2.07-15.31-3.91-20.34c-5.89-4.96-14.42-5.17-20.56-0.52
				c-6.23,4.73-8.59,13.23-4.91,20.1C61.19,42.67,66.2,50.66,71.21,59.19z"/>
			<path class="st5" d="M50.09,86.54c-15.26,0-30.53,0-45.79,0c-1.28,0-2.53-0.11-3.05-0.9c-0.52-0.79-0.12-2.02,0.4-3.23
				c1.55-3.63,3.1-7.25,4.66-10.87c3.75-8.76,7.63-17.82,11.4-26.75c0.76-1.81,1.86-2.52,3.9-2.52c0.01,0,0.03,0,0.05,0
				c8.31,0.04,16.77,0.04,24.94,0.03l10.44,0c-0.27-0.46-0.53-0.91-0.79-1.35c-0.75-1.28-1.47-2.5-2.14-3.73
				c-4.72-8.67-2.76-19.06,4.76-25.28c7.3-6.05,17.98-6.09,25.38-0.11c7.62,6.16,9.63,16.54,4.9,25.26c-1.34,2.47-2.95,5.09-4.92,8
				c-0.73,1.08-0.79,1.93-0.22,3.24c4.02,9.29,8.07,18.76,11.98,27.92l2.67,6.24c0.59,1.37,0.88,2.43,0.39,3.16
				c-0.49,0.74-1.61,0.89-3.14,0.89C80.62,86.54,65.35,86.54,50.09,86.54z M21.59,43.12c-1.7,0-2.49,0.51-3.12,2
				c-3.76,8.93-7.65,17.99-11.4,26.75c-1.55,3.62-3.11,7.25-4.65,10.87c-0.56,1.3-0.71,2.08-0.47,2.43
				c0.23,0.35,0.98,0.52,2.35,0.52c30.53,0.01,61.06,0.01,91.58,0c0.9,0,2.14-0.05,2.44-0.51c0.3-0.45-0.13-1.56-0.47-2.36
				l-2.67-6.24c-3.91-9.16-7.95-18.62-11.98-27.91c-0.69-1.58-0.6-2.72,0.29-4.04c1.96-2.89,3.55-5.49,4.88-7.93
				c4.54-8.35,2.61-18.3-4.69-24.2c-7.09-5.73-17.32-5.69-24.31,0.1c-7.2,5.96-9.07,15.93-4.55,24.23c0.66,1.22,1.37,2.42,2.12,3.7
				c0.37,0.64,0.76,1.29,1.16,1.99l0.37,0.63l-11.9,0c-8.18,0.01-16.63,0.01-24.95-0.03C21.62,43.12,21.6,43.12,21.59,43.12z
				 M69.97,83.28H4.81l0.5-1.33c0.18-0.5,0.36-0.96,0.55-1.42c1.27-2.98,2.55-5.96,3.83-8.93c3.25-7.55,6.6-15.36,9.78-23.09
				c1.15-2.8,2.7-3.6,5.33-2.77l0.27,0.08l0.03,0.28c0.28,2.75,1.96,4.7,5.45,6.3c0.21,0.1,0.43,0.19,0.64,0.29l0.42,0.19
				c2.66,1.2,3.94,1.89,4.26,3c0.32,1.13-0.43,2.41-2.09,4.88c-1.56,2.32-2.06,4.48-1.45,6.23c0.57,1.63,2.12,2.89,4.48,3.64
				c3.52,1.12,7.28,1.73,10.91,2.32c1.29,0.21,2.58,0.42,3.87,0.65c1.21,0.22,2.46,0.38,3.67,0.53c1.92,0.24,3.9,0.49,5.8,1
				c4.18,1.11,7.1,3.65,8.68,7.57L69.97,83.28z M6.03,82.43H68.7c-1.52-3.33-4.16-5.51-7.86-6.49c-1.85-0.49-3.8-0.74-5.69-0.97
				c-1.22-0.15-2.48-0.31-3.71-0.54c-1.28-0.23-2.57-0.44-3.85-0.65c-3.67-0.6-7.46-1.22-11.03-2.35c-2.62-0.83-4.36-2.27-5.02-4.16
				c-0.7-2.02-0.17-4.43,1.54-6.98c1.34-2,2.21-3.37,1.97-4.18c-0.23-0.8-1.65-1.5-3.8-2.46l-0.41-0.18
				c-0.22-0.1-0.44-0.19-0.66-0.29c-2.49-1.15-5.38-2.94-5.9-6.7c-2.05-0.57-3.08,0.05-4.03,2.37c-3.18,7.74-6.54,15.55-9.79,23.1
				c-1.28,2.98-2.56,5.95-3.83,8.93c-0.19,0.44-0.35,0.89-0.53,1.38L6.03,82.43z M95.51,83.18H72.52l-0.1-0.28
				C69.26,74.07,61.7,72.22,54,71.52c-3.68-0.33-7.39-1-10.97-1.65c-1.12-0.2-2.24-0.4-3.36-0.6c-1.07-0.18-2.09-0.66-2.95-1.1
				c-1.25-0.64-1.98-1.37-2.23-2.24c-0.25-0.87-0.02-1.88,0.71-3.1c0.31-0.51,0.65-1.01,0.99-1.51c0.36-0.53,0.73-1.07,1.05-1.62
				c0.88-1.51,1.16-3.01,0.81-4.32c-0.34-1.29-1.3-2.42-2.78-3.27c-0.72-0.41-1.5-0.77-2.25-1.12c-0.92-0.42-1.88-0.86-2.76-1.42
				c-0.79-0.49-1.43-1.18-2.06-1.85c-0.27-0.29-0.54-0.58-0.83-0.85l-0.25-0.24l0.76-1.15l11.56,0c6.01,0.01,12.22,0.01,18.33-0.04
				c0.02,0,0.04,0,0.06,0c1.56,0,2.48,0.53,3.25,1.87c2.38,4.15,4.9,8.33,7.32,12.37l1.26,2.1c0.62,1.04,1.14,1.57,1.55,1.57
				c0,0,0,0,0.01,0c0.4,0,0.93-0.51,1.57-1.53c1.76-2.79,3.51-5.58,5.33-8.5l2.74-4.38L95.51,83.18z M73.11,82.34h21.12l-13.5-31.57
				l-1.89,3.01c-1.83,2.92-3.57,5.72-5.34,8.5c-0.86,1.36-1.56,1.91-2.3,1.92c-0.76-0.01-1.43-0.6-2.26-1.98l-1.26-2.1
				c-2.43-4.04-4.94-8.22-7.33-12.38c-0.63-1.09-1.25-1.46-2.57-1.44c-6.11,0.05-12.33,0.05-18.34,0.04l-11.1,0l-0.13,0.19
				c0.2,0.21,0.41,0.42,0.61,0.64c0.62,0.66,1.2,1.28,1.89,1.71c0.83,0.52,1.76,0.95,2.66,1.36c0.77,0.35,1.57,0.72,2.32,1.15
				c1.67,0.96,2.77,2.27,3.17,3.78c0.41,1.54,0.1,3.25-0.9,4.97c-0.34,0.58-0.71,1.13-1.08,1.67c-0.33,0.48-0.66,0.97-0.96,1.47
				c-0.6,1-0.81,1.8-0.62,2.43c0.18,0.63,0.77,1.2,1.8,1.72c0.81,0.41,1.76,0.86,2.71,1.02c1.12,0.19,2.24,0.4,3.37,0.6
				c3.56,0.64,7.25,1.31,10.89,1.64C61.6,71.36,69.72,73.28,73.11,82.34z M71.2,60l-0.35-0.6c-1.53-2.6-3.06-5.16-4.57-7.68
				c-3.5-5.85-6.82-11.38-9.91-17.15c-3.66-6.82-1.5-15.69,5.02-20.64c6.34-4.8,15.01-4.59,21.09,0.53
				c6.2,5.21,7.88,13.99,4.01,20.87c-2.38,4.23-5.03,8.41-7.59,12.44c-1.12,1.76-2.24,3.52-3.34,5.3c-0.81,1.31-1.63,2.61-2.53,4.04
				L71.2,60z M71.61,11.32c-3.4,0-6.81,1.09-9.71,3.29c-6.2,4.7-8.25,13.11-4.79,19.57C60.2,39.93,63.5,45.44,67,51.29
				c1.4,2.34,2.81,4.69,4.22,7.09l1.08-1.71c0.9-1.43,1.72-2.73,2.53-4.04c1.1-1.77,2.22-3.54,3.34-5.3
				c2.56-4.02,5.2-8.19,7.57-12.4c3.73-6.63,2.17-14.78-3.81-19.81C78.94,12.59,75.28,11.32,71.61,11.32z"/>
		</g>
		<g>
			<path class="st6" d="M71.34,34.72c-4.51-0.09-8.1-3.79-8.06-8.33c0.04-4.6,3.8-8.26,8.45-8.19c4.66,0.06,8.19,3.75,8.1,8.47
				C79.74,31.37,76.11,34.82,71.34,34.72z M66.49,26.37c-0.04,2.92,2.18,5.24,5.06,5.28c2.8,0.04,5.25-2.39,5.24-5.18
				c-0.01-2.74-2.27-5.04-5.03-5.12C68.82,21.26,66.54,23.44,66.49,26.37z"/>
			<path class="st5" d="M71.52,35.15c-0.07,0-0.13,0-0.2,0l0,0c-4.71-0.09-8.51-4.02-8.47-8.75c0.02-2.33,0.94-4.5,2.6-6.12
				c1.67-1.64,3.88-2.52,6.28-2.49c2.35,0.03,4.51,0.95,6.09,2.58c1.61,1.66,2.47,3.9,2.42,6.31c-0.04,2.36-0.96,4.52-2.57,6.08
				C76.07,34.3,73.89,35.15,71.52,35.15z M71.34,34.3c2.21,0.07,4.26-0.72,5.75-2.15c1.45-1.4,2.28-3.35,2.31-5.49
				c0.04-2.19-0.74-4.22-2.19-5.71c-1.42-1.47-3.38-2.3-5.5-2.32c-0.04,0-0.08,0-0.11,0c-2.1,0-4.08,0.8-5.56,2.25
				c-1.49,1.46-2.33,3.42-2.34,5.52C63.66,30.67,67.09,34.22,71.34,34.3L71.34,34.3z M71.62,32.07c-0.02,0-0.05,0-0.07,0
				c-1.49-0.02-2.88-0.61-3.9-1.66c-1.04-1.07-1.6-2.51-1.58-4.05c0.02-1.53,0.62-2.93,1.67-3.94c1.06-1.01,2.48-1.54,4.03-1.5
				c2.99,0.09,5.43,2.57,5.44,5.54c0,1.44-0.61,2.89-1.69,3.96C74.46,31.47,73.04,32.07,71.62,32.07z M71.59,21.77
				c-1.25,0-2.41,0.45-3.27,1.27c-0.89,0.85-1.39,2.04-1.41,3.34l0,0c-0.02,1.31,0.46,2.54,1.34,3.45c0.86,0.89,2.04,1.39,3.31,1.4
				c1.2,0,2.45-0.5,3.37-1.41c0.92-0.91,1.44-2.13,1.44-3.35c-0.01-2.52-2.08-4.62-4.62-4.7C71.7,21.77,71.64,21.77,71.59,21.77z"/>
		</g>
	</g>
</g>
<g id="Layer_4">
	<path class="st7" d="M48.21,48.89c0,0-2.45,1.39-5.44,3.08l-17.46,9.9l-17.47,9.9c-2.99,1.69-2.98,4.46,0,6.16l17.47,9.9l17.47,9.9
		c2.99,1.69,7.88,1.69,10.87,0l19.69-11.17l15.22-8.63c1.49-0.85,2.84-2.31,3.83-4L48.21,48.89L48.21,48.89z"/>
	<path class="st8" d="M48.21,48.89l44.17,25.04c0.99-1.69,1.6-3.61,1.6-5.33l0.01-24.05c0-3.43-2.44-7.63-5.43-9.33l-11.78-6.68
		L53.64,15.42c-2.99-1.69-5.43-0.27-5.43,3.16L48.21,48.89L48.21,48.89z"/>
	<path class="st9" d="M31.59,39.47L7.21,25.64c-0.99,1.69-1.61,3.61-1.61,5.33v24.06c0,3.44,2.45,7.63,5.43,9.33l34.93,19.8
		c2.99,1.69,5.43,0.27,5.43-3.17V56.94c0-3.43,0-6.25,0-6.25l0,0l-0.28-0.16L31.59,39.47z"/>
	<path class="st10" d="M55.74,48.23l36.02-20.42c2.99-1.69,2.99-4.47,0-6.16L56.83,1.85c-2.96-1.68-7.78-1.69-10.78-0.04
		l-35.11,19.9C9.49,22.56,8.17,24,7.21,25.64l24.38,13.82l19.52,11.06l0.27,0.15l0,0h0h0l0,0v0C51.4,50.69,53.27,49.63,55.74,48.23"
		/>
</g>
</svg>
