<?xml version="1.0" encoding="UTF-8"?>
<svg id="Layer_2" data-name="Layer 2" xmlns="http://www.w3.org/2000/svg" viewBox="0 0 98.92 60.1">
  <defs>
    <style>
      .cls-1 {
        stroke-miterlimit: 10;
        stroke-width: .81px;
      }

      .cls-1, .cls-2 {
        stroke: #00784a;
      }

      .cls-1, .cls-3 {
        fill: #00784a;
      }

      .cls-2 {
        fill: none;
        stroke-linecap: round;
        stroke-linejoin: round;
        stroke-width: 1.84px;
      }
    </style>
  </defs>
  <g id="Layer_1-2" data-name="Layer 1">
    <g>
      <path class="cls-3" d="m23.12,9.23v13.34c0,1.06,1.65,1.06,1.65,0v-13.34c0-1.06-1.65-1.06-1.65,0h0Z"/>
      <g>
        <path class="cls-3" d="m48.74,52.35c7.45,6.66,17.85,9.28,27.55,6.83,8.16-2.07,15.25-7.66,19.17-15.11s4.59-17.08,1.32-25.16-9.62-14.14-17.61-17.09c-9.07-3.34-19.56-1.97-27.46,3.58-1.03.73-2.02,1.51-2.97,2.36s.46,2.31,1.44,1.44c6.92-6.19,16.66-8.59,25.65-6.28,7.64,1.96,14.2,7.17,17.87,14.15s4.18,15.89,1.18,23.44-8.94,13.13-16.25,15.82c-8.54,3.14-18.25,1.92-25.74-3.26-.95-.66-1.85-1.38-2.71-2.15-.97-.87-2.42.56-1.44,1.44h0Z"/>
        <path class="cls-3" d="m40.86,30.05c.03-7.96,3.42-15.52,9.32-20.86.39-.35.4-1.09,0-1.44C42.74,1.09,32.33-1.53,22.63.92,14.47,2.99,7.38,8.59,3.46,16.03s-4.59,17.08-1.32,25.16,9.62,14.14,17.61,17.09c9.07,3.34,19.56,1.97,27.46-3.58,1.03-.73,2.02-1.51,2.97-2.36.4-.35.39-1.08,0-1.44-5.89-5.34-9.29-12.9-9.32-20.86,0-1.31-2.04-1.31-2.04,0,.03,8.47,3.64,16.61,9.91,22.3v-1.44c-6.92,6.19-16.66,8.59-25.65,6.28-7.64-1.96-14.2-7.17-17.87-14.15s-4.18-15.89-1.18-23.44S12.98,6.47,20.29,3.78c8.54-3.14,18.25-1.92,25.74,3.26.95.66,1.85,1.38,2.71,2.15v-1.44c-6.28,5.69-9.89,13.83-9.91,22.3,0,1.31,2.03,1.31,2.04,0Z"/>
        <path class="cls-3" d="m67,9.87v21.42c0,.68-.15,1.59.34,2.13.57.63,1.22,1.21,1.83,1.81l3.7,3.65c2.11,2.08,4.22,4.17,6.33,6.25,1.04,1.03,2.65-.58,1.61-1.61-3.47-3.43-6.94-6.85-10.41-10.28-.49-.48-.97-.96-1.46-1.44l.33.8V9.87c0-1.46-2.27-1.47-2.27,0h0Z"/>
        <g>
          <path class="cls-3" d="m35.96,24.05c-.04-1.42-1.05-2.47-2.19-3.18-1.53-.96-3.37-1.45-5.13-1.76-2.29-.4-4.64-.5-6.95-.31-2.02.16-4.07.51-5.96,1.27-1.31.53-2.75,1.28-3.45,2.58-.39.73-.37,1.51-.37,2.3v6.36c.02,1.92-.04,3.85.03,5.77.09,2.78,3.57,4.25,5.8,4.93,4.16,1.27,8.99,1.23,13.1-.23,2.12-.75,5.1-2.21,5.1-4.84,0-4.06.01-8.12.03-12.18,0-.24,0-.47,0-.71,0-1.31-2.04-1.31-2.04,0,.02,3.71-.01,7.42-.02,11.14,0,.63-.04,1.28,0,1.92,0,.04,0,.09,0,.13,0-.11.07-.24,0-.08-.02.06-.12.35-.05.2-.2.45-.49.75-.92,1.09-1.23.99-2.85,1.52-4.36,1.88-2.03.49-4.14.62-6.21.47-1.87-.13-3.78-.51-5.51-1.26-1.07-.46-2.38-1.17-2.83-2.19.06.14-.02-.06-.03-.11-.06-.21-.01-.18-.02,0,0-.04,0-.09,0-.13.01-.23,0-.47,0-.7v-2.74c-.01-2.3-.02-4.6-.02-6.89,0-.68,0-1.35,0-2.03,0-.23,0-.46,0-.69,0-.08.04-.26,0-.09.01-.05.12-.36.05-.19.12-.28.16-.31.34-.5.89-.94,2.31-1.43,3.57-1.78,1.96-.54,4.01-.74,6.04-.74s4.01.2,5.95.72c1.28.35,2.75.84,3.65,1.8.17.19.19.19.32.46.05.11,0,0,0-.03.02.06.04.12.06.18.04.16.01-.1.02.18.03,1.31,2.07,1.31,2.04,0Z"/>
          <path class="cls-3" d="m33.91,23.67c0,.26-.14.62-.36.89-.38.46-.85.78-1.36,1.07-1.44.81-3.1,1.2-4.72,1.46-2.07.32-4.22.33-6.3.1-1.67-.18-3.43-.55-4.95-1.28-.64-.31-1.26-.66-1.75-1.17-.19-.2-.27-.29-.41-.58-.05-.1-.1-.32-.11-.47-.03-1.31-2.07-1.31-2.04,0,.04,1.52,1.09,2.67,2.31,3.46,1.64,1.06,3.63,1.6,5.54,1.9,2.43.39,4.92.45,7.36.14,2.05-.26,4.12-.72,5.96-1.71,1.44-.78,2.82-2.03,2.86-3.78.03-1.31-2-1.31-2.04,0h0Z"/>
          <path class="cls-3" d="m33.93,27.87c0,.26-.14.62-.36.89-.38.46-.85.78-1.36,1.07-1.44.81-3.1,1.2-4.72,1.46-2.07.32-4.22.33-6.3.1-1.67-.18-3.43-.55-4.95-1.28-.64-.31-1.26-.66-1.75-1.17-.19-.2-.27-.29-.41-.58-.05-.1-.1-.32-.11-.47-.03-1.31-2.07-1.31-2.04,0,.04,1.52,1.09,2.67,2.31,3.46,1.64,1.06,3.63,1.6,5.54,1.9,2.43.39,4.92.45,7.36.14,2.05-.26,4.12-.72,5.96-1.71,1.44-.78,2.82-2.03,2.86-3.78.03-1.31-2-1.31-2.04,0h0Z"/>
          <path class="cls-3" d="m33.93,32.2c0,.26-.14.62-.36.89-.38.46-.85.78-1.36,1.07-1.44.81-3.1,1.2-4.72,1.46-2.07.32-4.22.33-6.3.1-1.67-.18-3.43-.55-4.95-1.28-.64-.31-1.26-.66-1.75-1.17-.19-.2-.27-.29-.41-.58-.05-.1-.1-.32-.11-.47-.03-1.31-2.07-1.31-2.04,0,.04,1.52,1.09,2.67,2.31,3.46,1.64,1.06,3.63,1.6,5.54,1.9,2.43.39,4.92.45,7.36.14,2.05-.26,4.12-.72,5.96-1.71,1.44-.78,2.82-2.03,2.86-3.78.03-1.31-2-1.31-2.04,0h0Z"/>
        </g>
        <polygon class="cls-1" points="20.59 21.91 26.8 21.82 23.82 27.27 20.59 21.91"/>
        <g>
          <path class="cls-2" d="m81.53,16.21s12.85,8.38,3.23,26.7"/>
          <polygon class="cls-1" points="75.92 12.77 82.86 12.66 79.53 18.74 75.92 12.77"/>
        </g>
      </g>
    </g>
  </g>
</svg>