<svg xmlns="http://www.w3.org/2000/svg" id="Layer_1" data-name="Layer 1" version="1.1" viewBox="16.23 21.22 167.56 157.54">
  <defs>
    <style>
      .cls-1 {
        fill: #00794a;
      }

      .cls-1, .cls-2 {
        stroke-width: 0px;
      }

      .cls-3 {
        fill: none;
        stroke: #007a4b;
        stroke-linecap: round;
        stroke-linejoin: round;
        stroke-width: 3px;
      }

      .cls-2 {
        fill: #00794b;
      }
    </style>
  </defs>
  <polyline class="cls-3" points="28.43 123.18 28.43 47.96 105.68 78.7 105.5 175.42 74.39 162.39"/>
  <polygon class="cls-3" points="28.43 47.96 105.68 22.72 181.38 48.45 105.68 78.7 28.43 47.96"/>
  <polygon class="cls-3" points="182.29 143.95 181.38 48.45 105.68 78.7 105.5 175.42 182.29 143.95"/>
  <polygon class="cls-3" points="83.47 30.46 156.62 58.49 156.93 85.17 137.09 93.67 138.24 65.83 63.53 36.15 83.47 30.46"/>
  <path class="cls-1" d="M76.33,147.22c-.02,5.97-1.83,11.7-5.33,16.62-3.23,4.55-8.09,8.27-13.33,10.18-5.75,2.1-11.91,2.33-17.74.67s-10.49-4.82-14.24-9.33c-.85-1.03-1.67-2.18-2.42-3.44-.38-.64-.74-1.29-1.07-1.95-.16-.32-.32-.64-.47-.97s-.3-.66-.38-.86c-.57-1.4-1.03-2.84-1.38-4.31s-.57-2.85-.68-4.34c-.45-6.02.92-11.91,4.03-17.04s7.41-8.87,12.75-11.3,11.62-3.1,17.32-1.94c5.79,1.18,10.97,4.04,15.04,8.28s6.66,9.53,7.59,15.37c.2,1.28.32,2.89.32,4.36,0,1.93,3.01,1.93,3,0-.02-6.48-2.01-12.92-5.78-18.21s-8.95-9.24-14.99-11.46-13.1-2.5-19.42-.7-11.64,5.34-15.66,10.23-6.67,11.24-7.17,17.77,1.08,13.14,4.47,18.72,8.14,9.75,13.86,12.34c6.1,2.76,12.91,3.54,19.48,2.23s12.05-4.49,16.44-9.07,7.42-10.55,8.38-16.86c.25-1.65.4-3.31.4-4.99,0-1.93-2.99-1.93-3,0Z"/>
  <polygon class="cls-2" points="44.8 143.12 40.63 138.95 29.63 149.96 40.63 160.97 44.8 156.8 40.91 152.9 65.68 152.9 65.68 147.02 40.91 147.02 44.8 143.12"/>
</svg>