<svg xmlns="http://www.w3.org/2000/svg" xmlns:xlink="http://www.w3.org/1999/xlink" id="Layer_1" data-name="Layer 1" version="1.1" viewBox="14.88 32.52 158.73 153.12">
  <defs>
    <style>
      .cls-1, .cls-2 {
        stroke-width: 0px;
      }

      .cls-1, .cls-3 {
        fill: none;
      }

      .cls-2 {
        fill: #00784a;
      }

      .cls-3 {
        stroke: #00784a;
        stroke-linecap: round;
        stroke-linejoin: round;
        stroke-width: 2.66px;
      }
    </style>
    <clipPath id="clippath">
      <rect class="cls-1" x="-349.75" y="47.13" width="391.06" height="116.54"/>
    </clipPath>
    <clipPath id="clippath-1">
      <rect class="cls-1" x="-349.75" y="47.13" width="391.06" height="116.54"/>
    </clipPath>
  </defs>
  <path class="cls-2" d="M32.79,164.24c-.12.11-.36.14-.54.14-.95.01-1.89-.02-2.84.02-.27.01-.6.13-.79.32-8.81,8.77-4.68,4.63-13.48,13.42-.1.1-.19.21-.26.28,2.4,2.41,4.77,4.8,7.18,7.22.13-.13.28-.26.41-.39,8.73-8.72,4.54-4.52,13.28-13.24.29-.29.43-.56.41-.98-.03-.84-.02-1.68,0-2.52,0-.19.07-.43.2-.57.6-.64,1.22-1.25,1.86-1.89l-3.61-3.61c-.61.61-1.2,1.23-1.82,1.81Z"/>
  <polyline class="cls-3" points="36.04 122.8 36.04 56.2 104.44 83.42 104.28 169.06 76.74 157.52"/>
  <polygon class="cls-3" points="36.04 56.2 104.44 33.85 171.47 56.64 104.44 83.42 36.04 56.2"/>
  <polygon class="cls-3" points="172.28 141.19 171.47 56.64 104.44 83.42 104.28 169.06 172.28 141.19"/>
  <polygon class="cls-3" points="84.78 40.71 149.55 65.52 149.82 89.15 132.26 96.68 133.28 72.03 67.12 45.74 84.78 40.71"/>
  <path class="cls-2" d="M78.46,144.09c-.02,5.31-1.67,10.45-4.76,14.78-2.9,4.06-7.14,7.28-11.84,8.98-5.02,1.81-10.5,2.02-15.63.56-4.93-1.4-9.31-4.31-12.6-8.25-6.79-8.16-7.59-20.15-2.08-29.21,2.65-4.36,6.59-7.81,11.24-9.94s10.25-2.76,15.34-1.73c5.06,1.03,9.68,3.56,13.26,7.27s5.98,8.57,6.79,13.74c.19,1.21.27,2.53.27,3.8,0,1.71,2.66,1.71,2.66,0-.02-5.74-1.78-11.44-5.12-16.12s-7.92-8.17-13.27-10.14c-10.93-4.02-23.69-.55-31.07,8.44-3.68,4.48-5.9,9.95-6.35,15.73s.96,11.64,3.96,16.58c2.9,4.77,7.25,8.67,12.34,10.96,5.4,2.43,11.43,3.1,17.24,1.93,11.21-2.28,20.23-11.71,21.93-23.03.22-1.44.34-2.88.34-4.33,0-1.71-2.65-1.71-2.66,0Z"/>
</svg>